# xmcd
#
# Track frame offsets:
#	150
#	17281
#	33304
#	49801
#	67410
#	89154
#	107477
#	137570
#	153195
#	170660
#	188917
#	207943
#	225659
#	241018
#	257779
#	272786
#
# Disc length: 3931 seconds
#
# Revision: 0
# Processed by: cddbd v1.5.2PL0 Copyright (c) Steve Scherf et al.
# Submitted via: audiograbber 1.83.01
#
DISCID=db0f5910
DTITLE=Monika Martin - Mit Dir
DYEAR=2015
DGENRE=Schlager
TTITLE0=Mit Dir
TTITLE1=Das kleine Haus am Meer
TTITLE2=Wolken bleiben niemals lang
TTITLE3=Die neue Wirklichkeit
TTITLE4=Lied für meine Stadt
TTITLE5=Die goldenen Felder
TTITLE6=Das Fest
TTITLE7=Ich tanze allein
TTITLE8=Nur einmal noch
TTITLE9=Wir werden alles überstehen
TTITLE10=Flügel
TTITLE11=In diesem Traum
TTITLE12=Wenn ein Stern vom Himmel fällt
TTITLE13=Wann schenkst Du mir nochmal Rosen
TTITLE14=Das kleine Haus am Meer
TTITLE15=DJ Echolot Hit-Mix
EXTD=
EXTT0=
EXTT1=
EXTT2=
EXTT3=
EXTT4=
EXTT5=
EXTT6=
EXTT7=
EXTT8=
EXTT9=
EXTT10=
EXTT11=
EXTT12=
EXTT13=
EXTT14=
EXTT15=
PLAYORDER=
